<?xml version="1.0" encoding="utf-8"?>
<!-- Generator: Adobe Illustrator 27.0.1, SVG Export Plug-In . SVG Version: 6.00 Build 0)  -->
<svg version="1.1" id="Layer_1" xmlns="http://www.w3.org/2000/svg" xmlns:xlink="http://www.w3.org/1999/xlink" x="0px" y="0px"
	 width="460px" height="502px" viewBox="0 0 460 502" style="enable-background:new 0 0 460 502;" xml:space="preserve">
<style type="text/css">
	.st0{clip-path:url(#SVGID_00000130618148603389426030000014025450163364913057_);}
	.st1{fill:#FFFFFF;}
	.st2{fill:#570DF8;}
</style>
<g>
	<defs>
		<rect id="SVGID_1_" width="460" height="502"/>
	</defs>
	<clipPath id="SVGID_00000140699944416255599940000015540655538475719588_">
		<use xlink:href="#SVGID_1_"  style="overflow:visible;"/>
	</clipPath>
	<g style="clip-path:url(#SVGID_00000140699944416255599940000015540655538475719588_);">
		<path class="st1" d="M39.5,320.6l6.7,1.9l3.6-6.6c1.6,0.2,3.2,0.2,4.8,0.1l3.4,6.7l6.7-1.7l-0.2-7.6c1.5-0.7,2.9-1.5,4.2-2.3
			l6.3,4.1l5-4.8l-3.9-6.4c0.9-1.3,1.8-2.7,2.5-4.1l7.5,0.4l1.9-6.7l-6.6-3.6c0.2-1.6,0.2-3.2,0.1-4.8l6.7-3.4l-1.7-6.7l-7.6,0.2
			c-0.7-1.5-1.5-2.9-2.3-4.2l4.1-6.3l-4.8-5l-6.4,3.9c-1.3-0.9-2.7-1.8-4.1-2.5l0.4-7.5l-6.7-1.9l-3.7,6.7c-1.6-0.2-3.2-0.2-4.8-0.1
			l-3.4-6.7l-6.7,1.7l0.2,7.6c-1.5,0.7-2.9,1.5-4.2,2.3l-6.3-4.1l-5,4.8l3.9,6.4c-0.9,1.3-1.8,2.7-2.5,4.1l-7.5-0.4l-1.9,6.7
			l6.6,3.6c-0.2,1.6-0.2,3.2-0.1,4.8l-6.7,3.4l1.7,6.7l7.6-0.2c0.7,1.5,1.5,2.9,2.3,4.2l-4.1,6.3l4.8,5l6.4-3.9
			c1.3,0.9,2.7,1.8,4.1,2.5L39.5,320.6z M35.6,282.3c2.7-9.5,12.6-15,22.1-12.2c9.5,2.7,15,12.6,12.2,22.1
			c-2.7,9.5-12.6,15-22.1,12.2C38.3,301.6,32.9,291.7,35.6,282.3z"/>
		<path class="st2" d="M58,323.4c-0.2,0-0.4-0.1-0.5-0.3l-3.2-6.4c-1.3,0.1-2.7,0.1-4.1-0.1l-3.4,6.3c-0.1,0.2-0.4,0.4-0.7,0.3
			l-6.7-1.9c-0.3-0.1-0.5-0.3-0.4-0.6l0.4-7.2c-1.2-0.6-2.4-1.3-3.5-2.1l-6.1,3.7c-0.2,0.1-0.5,0.1-0.7-0.1l-4.8-5
			c-0.2-0.2-0.2-0.5-0.1-0.8l3.9-6c-0.7-1.2-1.4-2.4-2-3.6l-7.2,0.2c-0.3,0-0.5-0.2-0.6-0.5l-1.7-6.7c-0.1-0.3,0.1-0.5,0.3-0.7
			l6.4-3.2c-0.1-1.3-0.1-2.7,0.1-4.1l-6.3-3.4c-0.2-0.1-0.4-0.4-0.3-0.7l1.9-6.7c0.1-0.3,0.3-0.5,0.6-0.4l7.2,0.4
			c0.6-1.2,1.3-2.4,2.1-3.5l-3.7-6.1c-0.1-0.2-0.1-0.5,0.1-0.7l5-4.8c0.2-0.2,0.5-0.2,0.8-0.1l6,3.9c1.2-0.7,2.4-1.4,3.6-2l-0.2-7.2
			c0-0.3,0.2-0.5,0.5-0.6l6.7-1.7c0.3-0.1,0.5,0.1,0.7,0.3l3.2,6.4c1.3-0.1,2.7-0.1,4.1,0.1l3.5-6.3c0.1-0.2,0.4-0.4,0.7-0.3
			l6.7,1.9c0.3,0.1,0.5,0.3,0.4,0.6l-0.5,7.2c1.2,0.6,2.4,1.3,3.5,2.1l6.1-3.7c0.2-0.1,0.5-0.1,0.7,0.1l4.8,5
			c0.2,0.2,0.2,0.5,0.1,0.8l-3.9,6c0.7,1.2,1.4,2.4,2,3.6l7.2-0.2c0.3,0,0.5,0.2,0.6,0.5l1.7,6.7c0.1,0.3-0.1,0.5-0.3,0.7l-6.4,3.2
			c0.1,1.3,0.1,2.7-0.1,4.1l6.3,3.5c0.2,0.1,0.4,0.4,0.3,0.7l-1.9,6.7c-0.1,0.3-0.3,0.5-0.6,0.4l-7.2-0.4c-0.6,1.2-1.3,2.4-2.1,3.5
			l3.7,6.1c0.1,0.2,0.1,0.5-0.1,0.7l-5,4.8c-0.2,0.2-0.5,0.2-0.8,0.1l-6-3.9c-1.2,0.7-2.4,1.4-3.6,2l0.2,7.2c0,0.3-0.2,0.5-0.5,0.6
			L58,323.4C58.1,323.4,58.1,323.4,58,323.4z M54.6,315.4c0.2,0,0.4,0.1,0.5,0.3l3.2,6.3l5.8-1.5l-0.2-7.1c0-0.2,0.1-0.5,0.4-0.6
			c1.4-0.7,2.8-1.4,4.1-2.3c0.2-0.1,0.5-0.1,0.7,0l5.9,3.9l4.3-4.1l-3.7-6c-0.1-0.2-0.1-0.5,0-0.7c0.9-1.3,1.7-2.6,2.4-4.1
			c0.1-0.2,0.3-0.4,0.6-0.3l7.1,0.4l1.6-5.7l-6.2-3.4c-0.2-0.1-0.3-0.4-0.3-0.6c0.2-1.6,0.2-3.2,0.1-4.7c0-0.2,0.1-0.5,0.3-0.6
			l6.3-3.2l-1.5-5.8l-7.1,0.2c-0.2,0-0.5-0.1-0.6-0.4c-0.6-1.4-1.4-2.8-2.3-4.1c-0.1-0.2-0.1-0.5,0-0.7l3.9-5.9l-4.1-4.3l-6,3.7
			c-0.2,0.1-0.5,0.1-0.7,0c-1.3-0.9-2.6-1.7-4.1-2.4c-0.2-0.1-0.4-0.3-0.3-0.6l0.4-7.1l-5.7-1.6l-3.4,6.2c-0.1,0.2-0.3,0.3-0.6,0.3
			c-1.6-0.2-3.2-0.2-4.7-0.1c-0.2,0-0.5-0.1-0.6-0.3l-3.2-6.3l-5.8,1.5l0.2,7.1c0,0.2-0.1,0.5-0.4,0.6c-1.4,0.6-2.8,1.4-4.1,2.3
			c-0.2,0.1-0.5,0.1-0.7,0l-6-3.9l-4.3,4.1l3.7,6c0.1,0.2,0.1,0.5,0,0.7c-0.9,1.3-1.7,2.6-2.4,4.1c-0.1,0.2-0.3,0.4-0.6,0.3
			l-7.1-0.4l-1.6,5.7l6.2,3.4c0.2,0.1,0.3,0.4,0.3,0.6c-0.2,1.6-0.2,3.2-0.1,4.7c0,0.2-0.1,0.5-0.3,0.6l-6.3,3.2l1.5,5.8l7.1-0.2
			c0.2,0,0.5,0.1,0.6,0.4c0.6,1.4,1.4,2.8,2.3,4.1c0.1,0.2,0.1,0.5,0,0.7l-3.9,5.9l4.1,4.3l6-3.7c0.2-0.1,0.5-0.1,0.7,0
			c1.3,0.9,2.6,1.7,4.1,2.4c0.2,0.1,0.4,0.3,0.3,0.6l-0.4,7.1l5.7,1.6l3.4-6.2c0.1-0.2,0.4-0.3,0.6-0.3
			C51.5,315.5,53.1,315.5,54.6,315.4C54.6,315.4,54.6,315.4,54.6,315.4z M52.8,305.6c-1.7,0-3.4-0.2-5.1-0.7
			c-9.8-2.8-15.4-13-12.6-22.8c1.3-4.7,4.5-8.7,8.8-11.1c4.3-2.4,9.3-3,14-1.6c9.8,2.8,15.4,13,12.6,22.8c-1.3,4.7-4.5,8.7-8.8,11.1
			C58.9,304.8,55.8,305.6,52.8,305.6z M36.2,282.4c-2.6,9.1,2.7,18.7,11.8,21.3c4.4,1.3,9.1,0.7,13.1-1.5c4-2.2,6.9-5.9,8.2-10.3
			c2.6-9.1-2.7-18.7-11.8-21.3c-4.4-1.3-9.1-0.7-13.1,1.5C40.4,274.3,37.4,278,36.2,282.4z"/>
		<path class="st1" d="M38.9,452.4l11.4,3.3l6.2-11.4c2.8,0.3,5.5,0.3,8.3,0.2l5.8,11.5l11.5-2.9l-0.3-12.9c2.5-1.1,4.9-2.5,7.2-4
			l10.8,7.1l8.5-8.2l-6.7-11.1c1.6-2.2,3-4.6,4.3-7.1l12.9,0.7l3.3-11.4l-11.4-6.2c0.3-2.8,0.3-5.5,0.2-8.3l11.6-5.8l-2.9-11.5
			l-13,0.3c-1.1-2.5-2.5-4.9-4-7.2l7.1-10.8l-8.2-8.5L90.5,355c-2.2-1.6-4.6-3-7.1-4.3l0.7-12.9l-11.4-3.3l-6.2,11.4
			c-2.8-0.3-5.5-0.3-8.3-0.2l-5.8-11.5L41,337.1l0.3,12.9c-2.5,1.1-4.9,2.5-7.2,4l-10.8-7.1l-8.5,8.2l6.7,11.1
			c-1.6,2.2-3,4.6-4.3,7.1l-12.9-0.7L1,383.9l11.4,6.2c-0.3,2.8-0.3,5.5-0.2,8.3l-11.6,5.8l2.9,11.5l13-0.3c1.1,2.5,2.5,4.9,4,7.2
			l-7.1,10.8l8.2,8.5l11.1-6.7c2.2,1.6,4.6,3,7.1,4.3L38.9,452.4z M32.2,386.7c4.6-16.2,21.5-25.6,37.8-20.9
			c16.2,4.6,25.6,21.5,20.9,37.7c-4.6,16.2-21.5,25.6-37.8,20.9C36.9,419.8,27.6,402.9,32.2,386.7z"/>
		<path class="st2" d="M70.6,456.7c-0.2,0-0.4-0.1-0.5-0.3l-5.6-11.2c-2.5,0.1-5,0.1-7.5-0.1l-6,11c-0.1,0.2-0.4,0.4-0.7,0.3
			L38.8,453c-0.3-0.1-0.5-0.3-0.4-0.6l0.7-12.5c-2.3-1.2-4.4-2.4-6.5-3.9l-10.7,6.5c-0.2,0.1-0.5,0.1-0.7-0.1l-8.2-8.5
			c-0.2-0.2-0.2-0.5-0.1-0.8l6.9-10.5c-1.4-2.1-2.6-4.3-3.6-6.6l-12.5,0.3c-0.3,0-0.5-0.2-0.6-0.5L0,404.3c-0.1-0.3,0.1-0.5,0.3-0.7
			l11.2-5.6c-0.1-2.5-0.1-5,0.1-7.5l-11-6c-0.2-0.1-0.4-0.4-0.3-0.7l3.3-11.4c0.1-0.3,0.3-0.5,0.6-0.4l12.5,0.7
			c1.2-2.3,2.4-4.4,3.9-6.5l-6.5-10.7c-0.1-0.2-0.1-0.5,0.1-0.7l8.5-8.2c0.2-0.2,0.5-0.2,0.8-0.1l10.5,6.9c2.1-1.4,4.3-2.6,6.6-3.6
			l-0.3-12.5c0-0.3,0.2-0.5,0.5-0.6l11.5-2.9c0.3-0.1,0.5,0.1,0.7,0.3l5.6,11.2c2.5-0.1,5-0.1,7.5,0.1l6-11c0.1-0.2,0.4-0.4,0.7-0.3
			l11.4,3.3c0.3,0.1,0.5,0.3,0.4,0.6l-0.7,12.5c2.3,1.2,4.4,2.4,6.5,3.9l10.7-6.5c0.2-0.1,0.5-0.1,0.7,0.1l8.2,8.5
			c0.2,0.2,0.2,0.5,0.1,0.8l-6.9,10.5c1.4,2.1,2.6,4.3,3.6,6.6l12.5-0.3c0.3,0,0.5,0.2,0.6,0.5L123,386c0.1,0.3-0.1,0.5-0.3,0.7
			l-11.2,5.6c0.1,2.5,0.1,5-0.1,7.5l11,6c0.2,0.1,0.4,0.4,0.3,0.7l-3.3,11.4c-0.1,0.3-0.3,0.5-0.6,0.4l-12.5-0.7
			c-1.2,2.3-2.4,4.4-3.9,6.5l6.5,10.7c0.1,0.2,0.1,0.5-0.1,0.7l-8.5,8.2c-0.2,0.2-0.5,0.2-0.8,0.1L89,437c-2.1,1.4-4.3,2.6-6.6,3.6
			l0.3,12.5c0,0.3-0.2,0.5-0.5,0.6L70.6,456.7C70.7,456.7,70.7,456.7,70.6,456.7z M64.8,443.9c0.2,0,0.4,0.1,0.5,0.3l5.6,11.1
			l10.6-2.6l-0.3-12.5c0-0.2,0.1-0.5,0.4-0.6c2.5-1.1,4.9-2.4,7.1-4c0.2-0.1,0.5-0.1,0.7,0l10.4,6.8l7.8-7.6l-6.5-10.6
			c-0.1-0.2-0.1-0.5,0-0.7c1.6-2.2,3-4.5,4.2-7c0.1-0.2,0.3-0.4,0.6-0.3l12.4,0.7l3-10.5l-10.9-6c-0.2-0.1-0.3-0.4-0.3-0.6
			c0.3-2.7,0.3-5.5,0.2-8.1c0-0.2,0.1-0.5,0.3-0.6l11.1-5.6l-2.6-10.6l-12.5,0.3c-0.2,0-0.5-0.1-0.6-0.4c-1.1-2.5-2.4-4.9-4-7.1
			c-0.1-0.2-0.1-0.5,0-0.7l6.8-10.4l-7.6-7.8l-10.6,6.5c-0.2,0.1-0.5,0.1-0.7,0c-2.2-1.6-4.5-3-7-4.2c-0.2-0.1-0.4-0.3-0.3-0.6
			l0.7-12.4l-10.5-3l-6,10.9c-0.1,0.2-0.4,0.3-0.6,0.3c-2.7-0.3-5.5-0.3-8.1-0.2c-0.2,0-0.5-0.1-0.6-0.3l-5.6-11.1l-10.6,2.6
			l0.3,12.5c0,0.2-0.1,0.5-0.4,0.6c-2.5,1.1-4.9,2.4-7.1,4c-0.2,0.1-0.5,0.1-0.7,0l-10.4-6.8l-7.8,7.6l6.5,10.6
			c0.1,0.2,0.1,0.5,0,0.7c-1.6,2.2-3,4.5-4.2,7c-0.1,0.2-0.3,0.4-0.6,0.3l-12.4-0.7l-3,10.5l10.9,6c0.2,0.1,0.3,0.4,0.3,0.6
			c-0.3,2.7-0.3,5.5-0.2,8.1c0,0.2-0.1,0.5-0.3,0.6l-11.1,5.6L4,415.1l12.5-0.3c0.2,0,0.5,0.1,0.6,0.4c1.1,2.5,2.4,4.9,4,7.1
			c0.1,0.2,0.1,0.5,0,0.7l-6.8,10.4l7.6,7.8l10.6-6.5c0.2-0.1,0.5-0.1,0.7,0c2.2,1.6,4.5,3,7,4.2c0.2,0.1,0.4,0.3,0.3,0.6L39.6,452
			l10.5,3l6-10.9c0.1-0.2,0.3-0.3,0.6-0.3C59.4,444,62.2,444.1,64.8,443.9C64.8,443.9,64.8,443.9,64.8,443.9z M61.5,426.2
			c-2.8,0-5.7-0.4-8.6-1.2c-8-2.3-14.6-7.6-18.6-14.8c-4-7.3-5-15.7-2.7-23.7c2.3-8,7.6-14.6,14.8-18.6c7.3-4,15.7-5,23.7-2.7
			c8,2.3,14.6,7.6,18.6,14.8c4,7.3,5,15.7,2.7,23.7C87.6,417.3,75.1,426.2,61.5,426.2z M32.2,386.7l0.6,0.2
			c-2.2,7.7-1.3,15.7,2.6,22.7c3.9,7,10.2,12,17.9,14.2c2.7,0.8,5.5,1.2,8.2,1.2c13,0,25-8.6,28.8-21.7c2.2-7.7,1.3-15.7-2.6-22.7
			s-10.2-12-17.9-14.2c-7.7-2.2-15.7-1.3-22.7,2.6c-7,3.9-12,10.2-14.2,17.9L32.2,386.7z"/>
		<path class="st1" d="M277.1,296.3c4.9-6.5-27.4-18.1-26.9-41c0.4-20.9,27.6-26.2,26.8-45.3c-0.9-20.5-32.5-24.5-32.5-45.3
			c0-16.1,18.7-18.5,20.3-35.7c1.8-20.7-24.7-23.4-33.3-50.7c-8.1-25.5,10.5-37.7-3-57.9c-1.8-2.6-12.7-18.3-28.3-18.5
			c-25.3-0.4-58,40.2-53.1,75.4c4,29.6,31.6,33.1,33.3,64.6c1.4,26.6-18.1,31.1-11.8,51.7c7.5,24.4,37.3,26.4,43.4,53.9
			c3.2,14.4-4,18.5,1.9,28.7C226.2,297.7,271.7,303.4,277.1,296.3z"/>
		<path d="M265.5,299.8c-1.2,0-2.4,0-3.7-0.1c-14.7-0.9-39.7-7.8-48.5-23.3c-3.3-5.7-2.6-9.6-1.9-14.1c0.6-3.8,1.3-8.2-0.1-14.8
			c-3.2-14.2-12.9-21.6-22.3-28.8c-8.6-6.5-17.4-13.2-21-25c-3.3-10.8,0.2-17.2,4.4-24.6c3.8-6.8,8-14.5,7.4-27.3
			c-0.8-16.2-8.5-24.7-16.5-33.7c-7.3-8.1-14.8-16.5-16.7-30.9c-3-22.1,8.4-44,20.1-57.2c10.8-12.2,23-19,33.7-18.8
			c15.5,0.2,26.7,15.7,28.8,18.8c7.4,11,5.4,19.8,3.3,29.2c-1.9,8.4-3.8,17.1-0.1,28.8c4.1,13,12.4,20.4,19.7,26.9
			c7.8,7,14.7,13.1,13.7,24c-0.8,8.8-5.9,13.7-10.8,18.5c-4.9,4.7-9.5,9.2-9.5,17.1c0,10.3,7.8,16.2,16,22.5
			c7.9,6.1,16.1,12.3,16.5,22.7c0.4,9.8-6.1,15.9-13,22.3c-6.7,6.3-13.6,12.8-13.8,23c-0.2,13.3,10.9,22.8,19.1,29.7
			c5.8,5,10.1,8.5,7.7,11.6C276,298.7,271.7,299.8,265.5,299.8z M199.8,2.5c-10.1,0-22.2,6.9-32.5,18.4
			c-11.5,13-22.7,34.6-19.8,56.2c1.9,14,9.3,22.2,16.4,30.2c7.8,8.8,16,17.8,16.8,34.4c0.7,13.2-3.7,21-7.5,27.9
			c-4,7.2-7.4,13.3-4.3,23.7c3.5,11.4,11.8,17.7,20.6,24.4c9.6,7.3,19.5,14.8,22.8,29.5c1.5,6.8,0.8,11.3,0.1,15.2
			c-0.7,4.4-1.3,8,1.7,13.3c8.6,15,33.2,21.8,47.5,22.7c7.5,0.5,13.2-0.5,14.8-2.6c1.6-2.2-2.4-5.6-7.6-10
			c-8.3-7.1-19.8-16.8-19.5-30.7c0.2-10.8,7.3-17.4,14.2-23.9c6.7-6.3,13-12.2,12.6-21.4c-0.4-9.8-8-15.6-16-21.8
			c-8.1-6.2-16.5-12.7-16.5-23.5c0-8.3,5-13.2,9.8-17.9c4.8-4.7,9.7-9.5,10.5-17.8c0.9-10.3-5.7-16.2-13.3-23
			c-7.4-6.6-15.8-14.1-20-27.4c-3.8-12-1.7-21.3,0.1-29.5c2.1-9.5,4-17.7-3.1-28.3c-2-3-12.8-18.1-27.8-18.3
			C200,2.5,199.9,2.5,199.8,2.5z"/>
		<path d="M266.8,292.6c-0.1,0-0.1,0-0.2,0c-19.6-6.1-31.9-14.6-36.7-25.4c-3.6-8.2-1.6-14.8,0.6-21.8c2.2-7,4.4-14.3,1.2-24
			c-3.4-10.3-9.6-14.9-15.6-19.3c-5.8-4.3-11.2-8.4-13.7-17.2c-3.4-12.4,3-21.2,9.2-29.7c6-8.2,12.3-16.8,9.8-28.7
			c-1.9-9.7-8.2-15.3-14.9-21.2c-7.2-6.4-15.4-13.7-19.2-27.3c-2.9-10.1-2.6-20.9,0.9-32.2c0.1-0.3,0.4-0.5,0.8-0.4
			c0.3,0.1,0.5,0.4,0.4,0.8c-3.3,11-3.6,21.6-0.9,31.5c3.7,13.2,11.4,20.1,18.9,26.8c6.8,6.1,13.3,11.9,15.3,21.9
			c2.5,12.5-3.9,21.2-10.1,29.7c-6.3,8.6-12.3,16.8-9,28.6c2.3,8.3,7.6,12.3,13.2,16.5c6.1,4.6,12.4,9.3,16,19.9
			c3.4,10.1,1,17.5-1.2,24.7c-2.1,6.8-4.1,13.2-0.7,20.9c4.6,10.4,16.7,18.7,35.9,24.7c0.3,0.1,0.5,0.4,0.4,0.8
			C267.3,292.4,267.1,292.6,266.8,292.6z"/>
		<path class="st1" d="M288.7,385c2.2-5-25.8-12.5-49.3-47.9c-14.2-21.4-19.7-42.4-24.7-62c-12.3-48.6-2.2-58.1-15.3-80.8
			c-15.7-27.2-35.4-16.7-57.7-44.7c-27.5-34.5-6.9-62.3-35.1-93.3C91.2,39.4,63.8,24.3,39.8,32C25.2,36.7,10,50.3,9.6,65.2
			c-0.4,14.3,13.3,19.1,24,36.6c19.2,31.2-3.7,49.8,8.5,81.4c16.5,42.9,68.5,34.2,90.8,85.3c8.9,20.6,1.3,23.7,9.2,43.3
			C168.9,378.2,284.3,394.9,288.7,385z"/>
		<path d="M277.5,388.3c-0.4,0-0.7,0-1,0c-16.1-0.2-44.3-5.8-70.9-17.8c-22.5-10.1-51.9-28.5-64-58.4c-3.9-9.6-4.1-15.4-4.3-21
			c-0.2-6.1-0.4-11.9-4.9-22.4c-11.4-26.3-30.6-36.5-49.1-46.5c-17.3-9.2-33.6-18-41.7-38.9c-5.6-14.6-3.9-26.5-2.2-38
			c2-13.7,4-26.6-6.3-43.3c-4.2-6.8-8.8-11.7-12.9-16C13.8,79.4,8.8,74.1,9,65.2c0.4-15.1,15.9-29,30.6-33.7
			c24.1-7.7,51.8,7.3,67.5,24.5c14.4,15.9,16.2,30.6,18,46.2c1.8,14.8,3.6,30.2,17.1,47.1c10.8,13.5,20.7,17.9,30.3,22.1
			c9.9,4.4,19.3,8.5,27.5,22.6c6.9,12,7.4,20.2,8.1,32.7c0.6,11.2,1.4,25.2,7.2,48.2c4.7,18.8,10.1,40.1,24.6,61.8
			c14.8,22.4,31.3,33.4,41.1,40c6,4,9.2,6.2,8.2,8.5C288.2,387.7,282.5,388.3,277.5,388.3z M53.3,30.6c-4.5,0-9,0.6-13.3,2
			c-14.3,4.6-29.4,18.1-29.7,32.6c-0.2,8.4,4.7,13.6,10.9,20.1c4.1,4.3,8.8,9.3,13.1,16.2c10.5,17.1,8.5,30.3,6.5,44.2
			c-1.7,11.3-3.4,23.1,2.1,37.4c7.9,20.5,24,29.1,41.1,38.2c18.7,10,38.1,20.4,49.7,47c4.7,10.7,4.9,16.8,5,22.8
			c0.2,5.5,0.4,11.1,4.2,20.6c20.8,51.6,98.6,74.9,133.7,75.4c7.8,0.1,11.2-1.1,11.7-2.3c0.6-1.4-2.9-3.7-7.8-7
			c-9.9-6.7-26.5-17.8-41.5-40.4c-14.6-21.9-20-43.3-24.8-62.2c-5.8-23.1-6.6-37.2-7.3-48.5c-0.7-12.3-1.1-20.4-7.9-32.1
			c-8-13.8-16.7-17.6-26.9-22.1c-9.3-4.1-19.8-8.8-30.8-22.5c-13.7-17.2-15.6-32.7-17.4-47.7c-1.8-15.4-3.6-30-17.7-45.6
			C93.6,42.9,73.2,30.6,53.3,30.6z"/>
		<path d="M268.6,382.6c-0.1,0-0.2,0-0.2-0.1c-23-9.6-41.3-21-54.6-33.8c-10.8-10.4-18.4-21.9-22.8-34.5
			c-4.6-13.1-5.1-25.5-5.6-37.4c-0.7-17.9-1.5-34.8-15.7-52c-10-12.1-20.6-16.8-30.7-21.5c-11.3-5.2-22-10-29.4-24.7
			c-5.1-10.2-5.2-18.5-5.3-28c-0.1-9.4-0.2-20.1-4.9-35.7c-4.6-15.5-12-30.3-22-43.9c-0.2-0.3-0.1-0.7,0.1-0.9s0.7-0.1,0.9,0.1
			c10.1,13.7,17.5,28.6,22.2,44.2c4.7,15.8,4.8,26.6,4.9,36.1c0.1,9.8,0.2,17.5,5.2,27.5c7.2,14.3,17.2,18.9,28.8,24.2
			c9.8,4.4,20.9,9.5,31.1,21.8c14.5,17.4,15.2,34.6,16,52.7c0.5,11.9,1,24.2,5.6,37.1c9.7,27.5,35.5,50.3,76.8,67.5
			c0.3,0.1,0.5,0.5,0.3,0.8C269,382.5,268.8,382.6,268.6,382.6z"/>
		<path class="st2" d="M428,388.4H237.1V0h189.5c5.5,0,9.9,4.4,9.9,9.9v370C436.5,384.6,432.7,388.4,428,388.4z"/>
		<path class="st1" d="M416.6,388.7H233c-4.4,0-7.9-3.5-7.9-7.9V8.6c0-4.4,3.5-7.9,7.9-7.9h183.6c4.4,0,7.9,3.5,7.9,7.9v372.2
			C424.5,385.1,421,388.7,416.6,388.7z"/>
		<path d="M284.5,148.9h-22.5c-1.5,0-2.7-1.2-2.7-2.7v-20.5c0-1.5,1.2-2.7,2.7-2.7h22.5c1.5,0,2.7,1.2,2.7,2.7v20.5
			C287.2,147.7,286,148.9,284.5,148.9z"/>
		<path d="M320,148.9h-22.8c-1.5,0-2.7-1.2-2.7-2.7v-20.5c0-1.5,1.2-2.7,2.7-2.7H320c1.5,0,2.7,1.2,2.7,2.7v20.5
			C322.7,147.7,321.5,148.9,320,148.9z"/>
		<path d="M355.3,149.3H333c-1.5,0-2.7-1.2-2.7-2.7V126c0-1.5,1.2-2.7,2.7-2.7h22.2c1.5,0,2.7,1.2,2.7,2.7v20.5
			C358,148,356.8,149.3,355.3,149.3z"/>
		<path d="M390.2,149.3h-22.2c-1.5,0-2.7-1.2-2.7-2.7V126c0-1.5,1.2-2.7,2.7-2.7h22.2c1.5,0,2.7,1.2,2.7,2.7v20.5
			C392.9,148,391.7,149.3,390.2,149.3z"/>
		<path d="M284.5,184.1h-22.5c-1.5,0-2.7-1.2-2.7-2.7v-20.5c0-1.5,1.2-2.7,2.7-2.7h22.5c1.5,0,2.7,1.2,2.7,2.7v20.5
			C287.2,182.9,286,184.1,284.5,184.1z"/>
		<path d="M320,184.1h-22.8c-1.5,0-2.7-1.2-2.7-2.7v-20.5c0-1.5,1.2-2.7,2.7-2.7H320c1.5,0,2.7,1.2,2.7,2.7v20.5
			C322.7,182.9,321.5,184.1,320,184.1z"/>
		<path d="M355.3,184.5H333c-1.5,0-2.7-1.2-2.7-2.7v-20.4c0-1.5,1.2-2.7,2.7-2.7h22.2c1.5,0,2.7,1.2,2.7,2.7v20.5
			C358,183.2,356.8,184.5,355.3,184.5z"/>
		<path d="M390.2,184.5h-22.2c-1.5,0-2.7-1.2-2.7-2.7v-20.4c0-1.5,1.2-2.7,2.7-2.7h22.2c1.5,0,2.7,1.2,2.7,2.7v20.5
			C392.9,183.2,391.7,184.5,390.2,184.5z"/>
		<path d="M285.2,219.4h-22.5c-1.5,0-2.7-1.2-2.7-2.7v-20.5c0-1.5,1.2-2.7,2.7-2.7h22.5c1.5,0,2.7,1.2,2.7,2.7v20.5
			C287.9,218.1,286.7,219.4,285.2,219.4z"/>
		<path d="M320.1,219.4h-22.8c-1.5,0-2.7-1.2-2.7-2.7v-20.5c0-1.5,1.2-2.7,2.7-2.7h22.8c1.5,0,2.7,1.2,2.7,2.7v20.5
			C322.8,218.1,321.6,219.4,320.1,219.4z"/>
		<path d="M356,219.7h-22.2c-1.5,0-2.7-1.2-2.7-2.7v-20.5c0-1.5,1.2-2.7,2.7-2.7H356c1.5,0,2.7,1.2,2.7,2.7V217
			C358.7,218.5,357.5,219.7,356,219.7z"/>
		<path d="M390.9,219.7h-22.2c-1.5,0-2.7-1.2-2.7-2.7v-20.5c0-1.5,1.2-2.7,2.7-2.7h22.2c1.5,0,2.7,1.2,2.7,2.7V217
			C393.6,218.5,392.4,219.7,390.9,219.7z"/>
		<path d="M285.2,254.6h-22.5c-1.5,0-2.7-1.2-2.7-2.7v-20.5c0-1.5,1.2-2.7,2.7-2.7h22.5c1.5,0,2.7,1.2,2.7,2.7v20.5
			C287.9,253.4,286.7,254.6,285.2,254.6z"/>
		<path d="M320.7,254.6h-22.8c-1.5,0-2.7-1.2-2.7-2.7v-20.5c0-1.5,1.2-2.7,2.7-2.7h22.8c1.5,0,2.7,1.2,2.7,2.7v20.5
			C323.4,253.4,322.2,254.6,320.7,254.6z"/>
		<path d="M356,254.9h-22.2c-1.5,0-2.7-1.2-2.7-2.7v-20.5c0-1.5,1.2-2.7,2.7-2.7H356c1.5,0,2.7,1.2,2.7,2.7v20.5
			C358.7,253.7,357.5,254.9,356,254.9z"/>
		<path d="M390.9,254.9h-22.2c-1.5,0-2.7-1.2-2.7-2.7v-20.5c0-1.5,1.2-2.7,2.7-2.7h22.2c1.5,0,2.7,1.2,2.7,2.7v20.5
			C393.6,253.7,392.4,254.9,390.9,254.9z"/>
		<path class="st1" d="M281.7,150h-20.4c-1.5,0-2.7-1.2-2.7-2.7v-20.5c0-1.5,1.2-2.7,2.7-2.7h20.5c1.5,0,2.7,1.2,2.7,2.7v20.5
			C284.4,148.7,283.2,150,281.7,150z"/>
		<path d="M281.7,150.6h-20.5c-1.8,0-3.3-1.5-3.3-3.3v-20.5c0-1.8,1.5-3.3,3.3-3.3h20.5c1.8,0,3.3,1.5,3.3,3.3v20.5
			C285,149.1,283.5,150.6,281.7,150.6z M261.2,124.7c-1.2,0-2.1,1-2.1,2.1v20.5c0,1.2,1,2.1,2.1,2.1h20.5c1.2,0,2.1-1,2.1-2.1v-20.5
			c0-1.2-1-2.1-2.1-2.1H261.2z"/>
		<path class="st1" d="M316.9,150h-20.5c-1.5,0-2.7-1.2-2.7-2.7v-20.5c0-1.5,1.2-2.7,2.7-2.7h20.5c1.5,0,2.7,1.2,2.7,2.7v20.5
			C319.6,148.7,318.4,150,316.9,150z"/>
		<path d="M316.9,150.6h-20.5c-1.8,0-3.3-1.5-3.3-3.3v-20.5c0-1.8,1.5-3.3,3.3-3.3h20.5c1.8,0,3.3,1.5,3.3,3.3v20.5
			C320.2,149.1,318.7,150.6,316.9,150.6z M296.4,124.7c-1.2,0-2.1,1-2.1,2.1v20.5c0,1.2,1,2.1,2.1,2.1h20.5c1.2,0,2.1-1,2.1-2.1
			v-20.5c0-1.2-1-2.1-2.1-2.1H296.4z"/>
		<path class="st1" d="M352.8,150.3h-20.5c-1.5,0-2.7-1.2-2.7-2.7v-20.5c0-1.5,1.2-2.7,2.7-2.7h20.5c1.5,0,2.7,1.2,2.7,2.7v20.5
			C355.5,149.1,354.3,150.3,352.8,150.3z"/>
		<path d="M352.8,150.9h-20.5c-1.8,0-3.3-1.5-3.3-3.3v-20.5c0-1.8,1.5-3.3,3.3-3.3h20.5c1.8,0,3.3,1.5,3.3,3.3v20.5
			C356.1,149.4,354.6,150.9,352.8,150.9z M332.3,125c-1.2,0-2.1,1-2.1,2.1v20.5c0,1.2,1,2.1,2.1,2.1h20.5c1.2,0,2.1-1,2.1-2.1v-20.5
			c0-1.2-1-2.1-2.1-2.1H332.3z"/>
		<path class="st1" d="M387.7,150.3h-20.5c-1.5,0-2.7-1.2-2.7-2.7v-20.5c0-1.5,1.2-2.7,2.7-2.7h20.5c1.5,0,2.7,1.2,2.7,2.7v20.5
			C390.4,149.1,389.2,150.3,387.7,150.3z"/>
		<path d="M387.7,150.9h-20.5c-1.8,0-3.3-1.5-3.3-3.3v-20.5c0-1.8,1.5-3.3,3.3-3.3h20.5c1.8,0,3.3,1.5,3.3,3.3v20.5
			C391,149.4,389.5,150.9,387.7,150.9z M367.2,125c-1.2,0-2.1,1-2.1,2.1v20.5c0,1.2,1,2.1,2.1,2.1h20.5c1.2,0,2.1-1,2.1-2.1v-20.5
			c0-1.2-1-2.1-2.1-2.1H367.2z"/>
		<path class="st1" d="M281.7,185.2h-20.5c-1.5,0-2.7-1.2-2.7-2.7V162c0-1.5,1.2-2.7,2.7-2.7h20.5c1.5,0,2.7,1.2,2.7,2.7v20.5
			C284.4,184,283.2,185.2,281.7,185.2z"/>
		<path d="M281.7,185.8h-20.5c-1.8,0-3.3-1.5-3.3-3.3V162c0-1.8,1.5-3.3,3.3-3.3h20.5c1.8,0,3.3,1.5,3.3,3.3v20.5
			C285,184.3,283.5,185.8,281.7,185.8z M261.2,159.9c-1.2,0-2.1,1-2.1,2.1v20.5c0,1.2,1,2.1,2.1,2.1h20.5c1.2,0,2.1-1,2.1-2.1V162
			c0-1.2-1-2.1-2.1-2.1H261.2z"/>
		<path class="st1" d="M316.9,185.2h-20.5c-1.5,0-2.7-1.2-2.7-2.7V162c0-1.5,1.2-2.7,2.7-2.7h20.5c1.5,0,2.7,1.2,2.7,2.7v20.5
			C319.6,184,318.4,185.2,316.9,185.2z"/>
		<path d="M316.9,185.8h-20.5c-1.8,0-3.3-1.5-3.3-3.3V162c0-1.8,1.5-3.3,3.3-3.3h20.5c1.8,0,3.3,1.5,3.3,3.3v20.5
			C320.2,184.3,318.7,185.8,316.9,185.8z M296.4,159.9c-1.2,0-2.1,1-2.1,2.1v20.5c0,1.2,1,2.1,2.1,2.1h20.5c1.2,0,2.1-1,2.1-2.1V162
			c0-1.2-1-2.1-2.1-2.1H296.4z"/>
		<path class="st1" d="M352.8,185.5h-20.5c-1.5,0-2.7-1.2-2.7-2.7v-20.5c0-1.5,1.2-2.7,2.7-2.7h20.5c1.5,0,2.7,1.2,2.7,2.7v20.5
			C355.5,184.3,354.3,185.5,352.8,185.5z"/>
		<path d="M352.8,186.1h-20.5c-1.8,0-3.3-1.5-3.3-3.3v-20.5c0-1.8,1.5-3.3,3.3-3.3h20.5c1.8,0,3.3,1.5,3.3,3.3v20.5
			C356.1,184.6,354.6,186.1,352.8,186.1z M332.3,160.2c-1.2,0-2.1,1-2.1,2.1v20.5c0,1.2,1,2.1,2.1,2.1h20.5c1.2,0,2.1-1,2.1-2.1
			v-20.5c0-1.2-1-2.1-2.1-2.1H332.3z"/>
		<path class="st1" d="M387.7,185.5h-20.5c-1.5,0-2.7-1.2-2.7-2.7v-20.5c0-1.5,1.2-2.7,2.7-2.7h20.5c1.5,0,2.7,1.2,2.7,2.7v20.5
			C390.4,184.3,389.2,185.5,387.7,185.5z"/>
		<path d="M387.7,186.1h-20.5c-1.8,0-3.3-1.5-3.3-3.3v-20.5c0-1.8,1.5-3.3,3.3-3.3h20.5c1.8,0,3.3,1.5,3.3,3.3v20.5
			C391,184.6,389.5,186.1,387.7,186.1z M367.2,160.2c-1.2,0-2.1,1-2.1,2.1v20.5c0,1.2,1,2.1,2.1,2.1h20.5c1.2,0,2.1-1,2.1-2.1v-20.5
			c0-1.2-1-2.1-2.1-2.1H367.2z"/>
		<path class="st1" d="M282.3,220.4h-20.5c-1.5,0-2.7-1.2-2.7-2.7v-20.4c0-1.5,1.2-2.7,2.7-2.7h20.5c1.5,0,2.7,1.2,2.7,2.7v20.5
			C285.1,219.2,283.8,220.4,282.3,220.4z"/>
		<path d="M282.3,221h-20.5c-1.8,0-3.3-1.5-3.3-3.3v-20.4c0-1.8,1.5-3.3,3.3-3.3h20.5c1.8,0,3.3,1.5,3.3,3.3v20.5
			C285.7,219.5,284.1,221,282.3,221z M261.9,195.1c-1.2,0-2.1,1-2.1,2.1v20.5c0,1.2,1,2.1,2.1,2.1h20.5c1.2,0,2.1-1,2.1-2.1v-20.4
			c0-1.2-1-2.1-2.1-2.1L261.9,195.1L261.9,195.1z"/>
		<path class="st1" d="M317.5,220.4h-20.5c-1.5,0-2.7-1.2-2.7-2.7v-20.4c0-1.5,1.2-2.7,2.7-2.7h20.5c1.5,0,2.7,1.2,2.7,2.7v20.5
			C320.3,219.2,319,220.4,317.5,220.4z"/>
		<path d="M317.5,221h-20.5c-1.8,0-3.3-1.5-3.3-3.3v-20.4c0-1.8,1.5-3.3,3.3-3.3h20.5c1.8,0,3.3,1.5,3.3,3.3v20.5
			C320.9,219.5,319.4,221,317.5,221z M297.1,195.1c-1.2,0-2.1,1-2.1,2.1v20.5c0,1.2,1,2.1,2.1,2.1h20.5c1.2,0,2.1-1,2.1-2.1v-20.4
			c0-1.2-1-2.1-2.1-2.1L297.1,195.1L297.1,195.1z"/>
		<path class="st1" d="M353.5,220.7H333c-1.5,0-2.7-1.2-2.7-2.7v-20.5c0-1.5,1.2-2.7,2.7-2.7h20.5c1.5,0,2.7,1.2,2.7,2.7V218
			C356.2,219.5,355,220.7,353.5,220.7z"/>
		<path d="M353.5,221.3H333c-1.8,0-3.3-1.5-3.3-3.3v-20.5c0-1.8,1.5-3.3,3.3-3.3h20.5c1.8,0,3.3,1.5,3.3,3.3V218
			C356.8,219.9,355.3,221.3,353.5,221.3z M333,195.4c-1.2,0-2.1,1-2.1,2.1V218c0,1.2,1,2.1,2.1,2.1h20.5c1.2,0,2.1-1,2.1-2.1v-20.5
			c0-1.2-1-2.1-2.1-2.1H333z"/>
		<path class="st1" d="M388.4,220.7h-20.5c-1.5,0-2.7-1.2-2.7-2.7v-20.5c0-1.5,1.2-2.7,2.7-2.7h20.5c1.5,0,2.7,1.2,2.7,2.7V218
			C391.1,219.5,389.9,220.7,388.4,220.7z"/>
		<path d="M388.4,221.3h-20.5c-1.8,0-3.3-1.5-3.3-3.3v-20.5c0-1.8,1.5-3.3,3.3-3.3h20.5c1.8,0,3.3,1.5,3.3,3.3V218
			C391.7,219.9,390.2,221.3,388.4,221.3z M367.9,195.4c-1.2,0-2.1,1-2.1,2.1V218c0,1.2,1,2.1,2.1,2.1h20.5c1.2,0,2.1-1,2.1-2.1
			v-20.5c0-1.2-1-2.1-2.1-2.1H367.9z"/>
		<path class="st1" d="M282.3,255.6h-20.5c-1.5,0-2.7-1.2-2.7-2.7v-20.5c0-1.5,1.2-2.7,2.7-2.7h20.5c1.5,0,2.7,1.2,2.7,2.7v20.5
			C285.1,254.4,283.8,255.6,282.3,255.6z"/>
		<path d="M282.3,256.2h-20.5c-1.8,0-3.3-1.5-3.3-3.3v-20.5c0-1.8,1.5-3.3,3.3-3.3h20.5c1.8,0,3.3,1.5,3.3,3.3v20.5
			C285.7,254.8,284.1,256.2,282.3,256.2z M261.9,230.3c-1.2,0-2.1,1-2.1,2.1v20.5c0,1.2,1,2.1,2.1,2.1h20.5c1.2,0,2.1-1,2.1-2.1
			v-20.5c0-1.2-1-2.1-2.1-2.1H261.9z"/>
		<path class="st1" d="M317.5,255.6h-20.5c-1.5,0-2.7-1.2-2.7-2.7v-20.5c0-1.5,1.2-2.7,2.7-2.7h20.5c1.5,0,2.7,1.2,2.7,2.7v20.5
			C320.3,254.4,319,255.6,317.5,255.6z"/>
		<path d="M317.5,256.2h-20.5c-1.8,0-3.3-1.5-3.3-3.3v-20.5c0-1.8,1.5-3.3,3.3-3.3h20.5c1.8,0,3.3,1.5,3.3,3.3v20.5
			C320.9,254.8,319.4,256.2,317.5,256.2z M297.1,230.3c-1.2,0-2.1,1-2.1,2.1v20.5c0,1.2,1,2.1,2.1,2.1h20.5c1.2,0,2.1-1,2.1-2.1
			v-20.5c0-1.2-1-2.1-2.1-2.1H297.1z"/>
		<path class="st1" d="M353.5,256H333c-1.5,0-2.7-1.2-2.7-2.7v-20.5c0-1.5,1.2-2.7,2.7-2.7h20.5c1.5,0,2.7,1.2,2.7,2.7v20.5
			C356.2,254.8,355,256,353.5,256z"/>
		<path d="M353.5,256.6H333c-1.8,0-3.3-1.5-3.3-3.3v-20.5c0-1.8,1.5-3.3,3.3-3.3h20.5c1.8,0,3.3,1.5,3.3,3.3v20.5
			C356.8,255.1,355.3,256.6,353.5,256.6z M333,230.6c-1.2,0-2.1,1-2.1,2.1v20.5c0,1.2,1,2.1,2.1,2.1h20.5c1.2,0,2.1-1,2.1-2.1v-20.5
			c0-1.2-1-2.1-2.1-2.1H333z"/>
		<path class="st1" d="M388.4,256h-20.5c-1.5,0-2.7-1.2-2.7-2.7v-20.5c0-1.5,1.2-2.7,2.7-2.7h20.5c1.5,0,2.7,1.2,2.7,2.7v20.5
			C391.1,254.8,389.9,256,388.4,256z"/>
		<path d="M388.4,256.6h-20.5c-1.8,0-3.3-1.5-3.3-3.3v-20.5c0-1.8,1.5-3.3,3.3-3.3h20.5c1.8,0,3.3,1.5,3.3,3.3v20.5
			C391.7,255.1,390.2,256.6,388.4,256.6z M367.9,230.6c-1.2,0-2.1,1-2.1,2.1v20.5c0,1.2,1,2.1,2.1,2.1h20.5c1.2,0,2.1-1,2.1-2.1
			v-20.5c0-1.2-1-2.1-2.1-2.1H367.9z"/>
		<path class="st1" d="M344.2,281.6h-33.8c-1,0-1.7-0.8-1.7-1.7v-13.8c0-1,0.8-1.7,1.7-1.7h33.8c1,0,1.7,0.8,1.7,1.7v13.8
			C346,280.8,345.2,281.6,344.2,281.6z"/>
		<path d="M344.2,282.2h-33.8c-1.3,0-2.3-1-2.3-2.3v-13.8c0-1.3,1-2.3,2.3-2.3h33.8c1.3,0,2.3,1,2.3,2.3v13.8
			C346.6,281.1,345.5,282.2,344.2,282.2z M310.5,264.9c-0.6,0-1.1,0.5-1.1,1.1v13.8c0,0.6,0.5,1.1,1.1,1.1h33.8
			c0.6,0,1.1-0.5,1.1-1.1v-13.8c0-0.6-0.5-1.1-1.1-1.1H310.5z"/>
		<path d="M416.6,389.3H233c-4.7,0-8.5-3.8-8.5-8.5V8.6c0-4.7,3.8-8.5,8.5-8.5h183.6c4.7,0,8.5,3.8,8.5,8.5v372.2
			C425.2,385.5,421.3,389.3,416.6,389.3z M233,1.3c-4,0-7.3,3.3-7.3,7.3v372.2c0,4,3.3,7.3,7.3,7.3h183.6c4,0,7.3-3.3,7.3-7.3V8.6
			c0-4-3.3-7.3-7.3-7.3L233,1.3L233,1.3z"/>
		<path class="st1" d="M351.8,392.7h-47.1c-1.2,0-2.1-0.9-2.1-2.1v-73.4c0-4.3,3.5-7.7,7.7-7.7h38.2c3.1,0,5.6,2.5,5.6,5.6v75.2
			C354.1,391.6,353.1,392.7,351.8,392.7z"/>
		<path d="M351.8,393.3h-47.1c-1.5,0-2.7-1.2-2.7-2.7v-73.4c0-4.6,3.7-8.3,8.3-8.3h38.2c3.4,0,6.2,2.8,6.2,6.2v75.2
			C354.7,391.9,353.4,393.3,351.8,393.3z M310.3,310.1c-3.9,0-7.1,3.2-7.1,7.1v73.4c0,0.8,0.7,1.5,1.5,1.5h47c1,0,1.8-0.8,1.8-1.8
			v-75.2c0-2.7-2.2-5-5-5L310.3,310.1L310.3,310.1z"/>
		<path d="M335.3,346.4h-15c-1.9,0-3.4-1.5-3.4-3.4v-15c0-1.9,1.5-3.4,3.4-3.4h15c1.9,0,3.4,1.5,3.4,3.4v15
			C338.8,344.9,337.2,346.4,335.3,346.4z"/>
		<path class="st1" d="M392.4,111H258.6c-2.5,0-4.6-2-4.6-4.6V27.8c0-2.5,2-4.6,4.6-4.6h133.8c2.5,0,4.6,2,4.6,4.6v78.6
			C396.9,109,394.9,111,392.4,111z"/>
		<path d="M392.4,111.6H258.6c-2.9,0-5.2-2.3-5.2-5.2V27.8c0-2.9,2.3-5.2,5.2-5.2h133.8c2.9,0,5.2,2.3,5.2,5.2v78.6
			C397.6,109.3,395.2,111.6,392.4,111.6z M258.6,23.9c-2.2,0-4,1.8-4,4v78.6c0,2.2,1.8,4,4,4h133.8c2.2,0,4-1.8,4-4V27.8
			c0-2.2-1.8-4-4-4H258.6z"/>
		<path d="M287.1,76.8c3.5,0,6.4-2.8,6.4-6.4c0-3.5-2.9-6.4-6.4-6.4c-3.5,0-6.4,2.8-6.4,6.4C280.7,73.9,283.6,76.8,287.1,76.8z"/>
		<path d="M307.1,76.5c3.5,0,6.4-2.8,6.4-6.4s-2.9-6.4-6.4-6.4s-6.4,2.8-6.4,6.4S303.6,76.5,307.1,76.5z"/>
		<path d="M327.5,76.2c3.5,0,6.4-2.8,6.4-6.4c0-3.5-2.8-6.4-6.4-6.4c-3.5,0-6.4,2.8-6.4,6.4C321.1,73.3,324,76.2,327.5,76.2z"/>
		<path d="M347.5,75.9c3.5,0,6.4-2.8,6.4-6.4s-2.9-6.4-6.4-6.4c-3.5,0-6.4,2.8-6.4,6.4S344,75.9,347.5,75.9z"/>
		<path d="M367.3,75.3c3.5,0,6.4-2.8,6.4-6.4s-2.9-6.4-6.4-6.4c-3.5,0-6.4,2.8-6.4,6.4S363.7,75.3,367.3,75.3z"/>
		<path d="M254.9,472c-0.3,0-0.6-0.2-0.6-0.5c-0.1-0.3,0.2-0.6,0.5-0.7c53-6.6,109.9-50.1,110.4-50.6c0.3-0.2,0.7-0.2,0.9,0.1
			c0.2,0.3,0.2,0.7-0.1,0.9C365.4,421.6,308.3,465.3,254.9,472C254.9,472,254.9,472,254.9,472z"/>
		<path d="M250.3,481.5c-0.3,0-0.6-0.2-0.6-0.6c0-0.3,0.2-0.6,0.6-0.6c41.4-1.9,95.2-35.4,95.7-35.8c0.3-0.2,0.7-0.1,0.9,0.2
			c0.2,0.3,0.1,0.7-0.2,0.9C346.1,445.8,292.1,479.5,250.3,481.5C250.3,481.5,250.3,481.5,250.3,481.5z"/>
		<path d="M245.7,477.9c-1.1,0-2.2-0.4-3-1.2c-1.7-1.7-1.7-4.4-0.1-6.1c1.7-1.7,4.4-1.7,6.1-0.1c1.7,1.7,1.7,4.4,0.1,6.1
			C247.9,477.4,246.8,477.9,245.7,477.9z M243.5,475.7c1.2,1.2,3.2,1.2,4.4-0.1c1.2-1.2,1.2-3.2-0.1-4.4c-1.2-1.2-3.2-1.2-4.4,0.1
			C242.2,472.6,242.2,474.6,243.5,475.7z"/>
		<path d="M376.6,418.7L376.6,418.7c-0.2,0-0.4-0.1-0.5-0.3l-5.3-10.7c-0.1-0.2-0.1-0.4,0-0.6c0.1-0.2,0.3-0.3,0.5-0.3l13-1.2
			c0.2,0,0.5,0.1,0.6,0.3c0.1,0.2,0.1,0.4,0,0.6l-7.7,11.9C376.9,418.6,376.8,418.7,376.6,418.7z M372.2,407.9l4.4,8.9l6.4-9.9
			L372.2,407.9z"/>
		<path d="M449.3,111c-0.2,0-0.3-0.1-0.4-0.2c-0.2-0.2-0.2-0.6,0-0.8l2.1-2.1c0.2-0.2,0.6-0.2,0.9,0c0.2,0.2,0.2,0.6,0,0.9l-2.1,2.1
			C449.6,111,449.4,111,449.3,111z"/>
		<path d="M457.3,103c-0.2,0-0.3-0.1-0.4-0.2c-0.2-0.2-0.2-0.6,0-0.9l2.1-2.1c0.2-0.2,0.6-0.2,0.9,0c0.2,0.2,0.2,0.6,0,0.9l-2.1,2.1
			C457.6,103,457.4,103,457.3,103z"/>
		<path d="M459.4,111c-0.2,0-0.3-0.1-0.4-0.2l-2.1-2.1c-0.2-0.2-0.2-0.6,0-0.9c0.2-0.2,0.6-0.2,0.9,0l2.1,2.1c0.2,0.2,0.2,0.6,0,0.8
			C459.7,111,459.5,111,459.4,111z"/>
		<path d="M451.4,103c-0.2,0-0.3-0.1-0.4-0.2l-2.1-2.1c-0.2-0.2-0.2-0.6,0-0.9c0.2-0.2,0.6-0.2,0.9,0l2.1,2.1c0.2,0.2,0.2,0.6,0,0.9
			C451.7,103,451.5,103,451.4,103z"/>
		<path d="M12.5,200.5c-0.1,0-0.2,0-0.2-0.1c-0.3-0.1-0.4-0.5-0.3-0.8l1.2-2.7c0.1-0.3,0.5-0.4,0.8-0.3c0.3,0.1,0.4,0.5,0.3,0.8
			l-1.2,2.7C13,200.4,12.7,200.5,12.5,200.5z"/>
		<path d="M17.2,190.2c-0.1,0-0.2,0-0.2-0.1c-0.3-0.1-0.4-0.5-0.3-0.8l1.2-2.7c0.1-0.3,0.5-0.4,0.8-0.3c0.3,0.1,0.4,0.5,0.3,0.8
			l-1.2,2.7C17.6,190.1,17.4,190.2,17.2,190.2z"/>
		<path d="M22,197c-0.1,0-0.2,0-0.2-0.1l-2.7-1.2c-0.3-0.1-0.4-0.5-0.3-0.8c0.1-0.3,0.5-0.4,0.8-0.3l2.7,1.2
			c0.3,0.1,0.4,0.5,0.3,0.8C22.4,196.9,22.2,197,22,197z"/>
		<path d="M11.7,192.3c-0.1,0-0.2,0-0.2-0.1L8.7,191c-0.3-0.1-0.4-0.5-0.3-0.8c0.1-0.3,0.5-0.4,0.8-0.3l2.7,1.2
			c0.3,0.1,0.4,0.5,0.3,0.8C12.1,192.2,11.9,192.3,11.7,192.3z"/>
		<path d="M39.8,233.8c-2.4,0-4.4-1.9-4.4-4.4s1.9-4.4,4.4-4.4c2.4,0,4.4,1.9,4.4,4.4C44.1,231.9,42.2,233.8,39.8,233.8z
			 M39.8,226.3c-1.7,0-3.2,1.4-3.2,3.2c0,1.7,1.4,3.2,3.2,3.2c1.7,0,3.2-1.4,3.2-3.2C42.9,227.7,41.5,226.3,39.8,226.3z"/>
		<path class="st1" d="M121.7,372.1c-11.5,16-20.3,43.3-27,75c-0.4,2.1-5.5,38.9-3.4,39.6c42.5,13.4,45.5,13.4,74.1,15.2
			c7.2,0.5,37.6,0,58.8-0.6c1.8-0.1,3.4-1.2,3.3-3.1c-2.6-48-7.2-105.9-7.2-105.9L121.7,372.1z"/>
		<path d="M227.4,498.8c-0.3,0-0.6-0.2-0.6-0.6c-2.5-45.2-6.7-99.9-7.1-105.4l-97.7-20c-10.3,14.5-19.3,39.6-26.7,74.4
			c-0.6,3-4.9,36.4-3.7,39c0.2,0.1,0.3,0.4,0.2,0.7c-0.1,0.3-0.4,0.5-0.8,0.4c-0.7-0.2-1.8-0.5,0.4-19.9c1-9.3,2.4-19.3,2.6-20.4
			c7.5-35.3,16.6-60.6,27.1-75.2c0.1-0.2,0.4-0.3,0.6-0.2l98.5,20.2c0.3,0.1,0.5,0.3,0.5,0.5c0.1,0.6,4.6,58.4,7.2,105.9
			C228,498.5,227.8,498.8,227.4,498.8L227.4,498.8z"/>
		<path class="st1" d="M244.8,252.7c0,0,26.6,17.9,39.1,14.5c17.5-4.7,25.2-49.4,26-53.3c0.7-3.9,4.1-24.1,7.6-31.5
			c3.3-7,5.3-14.3,6.3-18.7c0.6-2.7,2.5-4,4.3-3.7c1.6,0.2,2.6,1.5,1.8,5.5c-1,4.6-1.9,9.2-2.8,13.2c-0.3,1.2-0.8,2.4,0.1,1.5
			c2-2.1,5.3-4.3,8.6-5.5c1.5-0.5,13.1-13.1,16.2-11.5c2.8,1.4-13,18.6-12.3,20.7c1.6,5.1,0.7,11.9-1.8,18
			c-4.2,10.4-10.9,9.3-12.1,14.2c-1.2,4.9-7.2,67.2-12,78.6c-7,16.4-73.8,4.4-73.8,4.4L244.8,252.7z"/>
		<path d="M283.8,304c-19.9,0-42.4-4-44-4.3c-0.3-0.1-0.5-0.4-0.5-0.7l4.9-46.5c0-0.2,0.2-0.4,0.4-0.5c0.2-0.1,0.4-0.1,0.6,0.1
			c0.3,0.2,26.5,17.7,38.6,14.5c15-4.1,22.8-37.9,25.5-52.3l0.1-0.5c0.1-0.4,0.2-1.1,0.4-1.9c1.2-6.3,4.2-23,7.3-29.8
			c3.2-6.8,5.2-13.9,6.3-18.6c0.7-2.8,2.7-4.5,4.9-4.1c0.9,0.1,1.5,0.5,2,1.2c0.7,1,0.8,2.7,0.3,5c-0.7,2.9-1.2,5.8-1.8,8.6
			c-0.3,1.6-0.7,3.2-1,4.6c0,0.1,0,0.1,0,0.1c1.9-1.7,4.8-3.7,8-4.7c0.4-0.1,2-1.6,3.4-3c5.8-5.3,10.9-9.7,13.2-8.5
			c0.3,0.2,0.5,0.4,0.6,0.8c0.4,1.7-2.5,5.8-7.2,12.2c-2.3,3.1-5.4,7.3-5.4,8.1c1.5,4.9,0.8,11.8-1.8,18.4
			c-2.5,6.2-5.9,8.5-8.5,10.1c-1.8,1.2-3.2,2.1-3.6,3.9c-0.3,1.4-1.1,7.8-2.1,15.9c-2.4,20.4-6.5,54.6-10,62.8
			C311.3,301.9,298.2,304,283.8,304z M240.6,298.6c6.4,1.1,66.2,10.8,72.5-4.2c3.4-8,7.5-42.1,9.9-62.5c1-8.5,1.8-14.6,2.1-16.1
			c0.5-2.3,2.2-3.4,4.1-4.7c2.5-1.7,5.7-3.8,8-9.6c2.6-6.3,3.2-12.9,1.8-17.6c-0.3-1.1,1.3-3.4,5.6-9.2c2.8-3.8,7.5-10.1,7-11.2
			c-1.8-0.8-8.5,5.4-11.8,8.4c-2.3,2.1-3.3,3-3.9,3.2c-3.5,1.2-6.7,3.6-8.4,5.3c-0.2,0.2-0.7,0.7-1.2,0.4c-0.5-0.3-0.4-0.8-0.1-1.7
			c0.1-0.2,0.1-0.5,0.2-0.8c0.3-1.5,0.6-3,1-4.6c0.6-2.8,1.2-5.7,1.8-8.6c0.4-2,0.4-3.3-0.1-4.1c-0.2-0.4-0.6-0.6-1.2-0.7
			c-1.6-0.2-3,1-3.6,3.2c-1.1,4.8-3.2,11.9-6.4,18.8c-3.1,6.6-6.1,23.2-7.2,29.5c-0.1,0.8-0.3,1.5-0.4,1.9l-0.1,0.5
			c-2.7,14.6-10.7,49-26.3,53.3c-1.1,0.3-2.4,0.4-3.7,0.4c-12,0-30.8-11.8-35.1-14.5L240.6,298.6z"/>
		<path d="M132.7,228.4c32.1-14.3,94.2-11.4,137.7,35.4c5.1,5.5-9.7,46.9-22.9,44.1c-11.7-2.5-21.2-5.4-22,1.3
			c-1.2,9.3,7.1,84-5,105.1c-21.7,37.6-86.6,32-120,13.7c-8.8-4.9,0.4-18.2,6.9-61.6c4.8-32.4,7.6-59.2,1.7-48.9
			c-2.9,5.1-33.6-25.5-30.4-34.6C85.7,262.7,98,243.9,132.7,228.4z"/>
		<path d="M302.8,217.9l25.7,3.5c1.8,59.3-3.9,101.9-81,86.5l10.4-55.1C286.7,272.8,297.4,248.4,302.8,217.9z"/>
		<path d="M85.8,268c-37.5,54.5-15.9,165.9,34.9,166.7l-1.3-48.1c-4.3-5.4-6.4-58.5,1.6-75.4L85.8,268z"/>
		<path class="st1" d="M98.2,426.8c-0.1,0-0.1,0-0.2,0c-0.3-0.1-0.5-0.4-0.4-0.7c7.6-27.2,11.8-70.6,13.2-102.3
			c0-0.3,0.3-0.6,0.6-0.6c0.3,0,0.6,0.3,0.6,0.6c-1.4,31.7-5.7,75.3-13.3,102.5C98.8,426.6,98.5,426.8,98.2,426.8z"/>
		<path class="st1" d="M152.1,223.5c0.4-1.3,13-11.7,9.7-35.3c0,0-17.1-23.2-11.9-33.5c5.2-10.2,4.7-25.4,22.2-25.5
			c17.5-0.1,27.7,7.7,31.7,17.9c4,10.2,5.1,20.4,5.5,26.3c0.3,4.4-0.3,14.2-0.6,19c-0.1,1.6-1.3,3-2.9,3.5l-5.3,1.5
			c-1.7,0.5-2.9,2.1-2.9,3.8l0.2,9.4c0.8,23-6.6,19.8-12.1,21.1C171.8,234.9,150.3,230.3,152.1,223.5z"/>
		<path d="M175.6,233.4c-9.5,0-19.3-2.3-22.9-6c-1.2-1.2-1.6-2.6-1.3-4c0.1-0.3,0.4-0.7,1-1.4c2.8-3.4,11.4-13.8,8.7-33.4
			c-1.5-2.1-17-23.8-11.9-34c1.2-2.4,2.2-5.2,3.1-7.9c2.9-8.8,6-17.9,19.7-17.9c15.9-0.1,27.7,6.5,32.3,18.3
			c3,7.7,4.9,16.6,5.5,26.5c0.3,4.3-0.3,13.8-0.6,19.1c-0.1,1.9-1.5,3.5-3.3,4l-5.3,1.5c-1.5,0.4-2.4,1.8-2.4,3.3l0.2,9.4
			c0.7,20.2-5,20.8-10.2,21.3c-0.9,0.1-1.7,0.2-2.4,0.4C182.8,233.1,179.2,233.4,175.6,233.4z M152.7,223.7c-0.2,1,0.1,1.9,1,2.8
			c4.6,4.7,21,7.1,32,4.6c0.9-0.2,1.7-0.3,2.6-0.4c4.8-0.5,9.7-1,9.1-20.1l-0.2-9.4c-0.1-2.1,1.3-3.9,3.3-4.4l5.3-1.5
			c1.3-0.4,2.3-1.6,2.4-3c0.4-5.2,0.9-14.6,0.6-18.9c-0.6-9.8-2.4-18.6-5.4-26.1c-4.4-11.2-15.8-17.6-31.2-17.5
			c-12.8,0.1-15.6,8.4-18.5,17.1c-0.9,2.7-1.9,5.5-3.1,8.1c-5,9.8,11.7,32.6,11.8,32.8c0.1,0.1,0.1,0.2,0.1,0.3
			c2.9,20.3-6,31-8.9,34.5C153.1,223.1,152.8,223.5,152.7,223.7z"/>
		<path d="M197.9,162.9c2.1-0.9,3.5-2.9,3.5-5.2c0.1-2.7-1.6-9.1,2.4-10.5c10.8-3.9,6.6-16.8,0.2-21.6c-6.4-4.8-31.5-12.7-44.2-5.8
			c0,0-5,4.2-3.9,8.4c0,0-10.1,0.3-12.5,7.8c-2.4,7.5-6.3,34.9,18.9,55.7c0,0,6.5,0.8,13.7-1.2c4.2-1.1,7.3-4.7,7.9-9
			c0.9-6.6,3.6-16.7,5.4-19.7c0,0-1.2-4.7,1.5-5.9c1.7-0.8,3.8,1.2,4.7,2.8L197.9,162.9z"/>
		<path d="M208,194.8c0,0-0.1,0-0.1,0c-0.1,0-9.5-1.7-11.6-11.9c-0.1-0.3,0.1-0.7,0.5-0.7c0.3-0.1,0.7,0.1,0.7,0.5
			c2,9.4,10.6,10.9,10.6,10.9c0.3,0.1,0.5,0.4,0.5,0.7C208.5,194.6,208.3,194.8,208,194.8z"/>
		<path d="M196.1,173.3C196.1,173.3,196.1,173.3,196.1,173.3c-0.3,0-7.9-0.3-9.9-13.7c-0.1-0.3,0.2-0.6,0.5-0.7
			c0.3-0.1,0.6,0.2,0.7,0.5c1.8,12.3,8.5,12.7,8.7,12.7c0.3,0,0.6,0.3,0.6,0.6C196.7,173,196.5,173.3,196.1,173.3z"/>
		<path d="M305,423.4l-1.2-4.3l-4.9,0.2c-0.4-0.9-1-1.8-1.6-2.7l2.6-4.1l-3.2-3.1l-4.1,2.6c-0.9-0.6-1.8-1.1-2.7-1.5l0.2-4.9
			l-4.3-1.1l-2.2,4.3c-1-0.1-2.1-0.1-3.1,0l-2.3-4.3l-4.3,1.2l0.2,4.9c-0.9,0.4-1.8,1-2.7,1.6l-4.1-2.6l-3.1,3.2l2.6,4.1
			c-0.6,0.9-1.1,1.8-1.5,2.7l-4.9-0.2l-1.1,4.3l4.3,2.2c-0.1,1-0.1,2.1,0,3.1l-4.3,2.3l1.2,4.3l4.9-0.2c0.4,0.9,1,1.8,1.6,2.7
			l-2.6,4.1l3.2,3.1l4.1-2.6c0.9,0.6,1.8,1.1,2.7,1.5l-0.2,4.9l4.3,1.1l2.2-4.3c1,0.1,2.1,0.1,3.1,0l2.3,4.3l4.3-1.2l-0.2-4.9
			c0.9-0.4,1.8-1,2.7-1.6l4.1,2.6l3.1-3.2l-2.6-4.1c0.6-0.9,1.1-1.8,1.5-2.7l4.9,0.2l1.1-4.3l-4.3-2.2c0.1-1,0.1-2.1,0-3.1
			L305,423.4z M285.2,438.4c-6.1,1.7-12.4-1.9-14-8c-1.7-6.1,1.9-12.4,8-14c6.1-1.7,12.4,1.9,14,8
			C294.9,430.4,291.3,436.7,285.2,438.4z"/>
		<path class="st2" d="M96.5,129.5c22.3,0,40.4-18.1,40.4-40.4c0-22.3-18.1-40.4-40.4-40.4c-22.3,0-40.4,18.1-40.4,40.4
			C56.1,111.4,74.2,129.5,96.5,129.5z"/>
		<path class="st1" d="M105.9,83.4l-0.2-12.8c-0.1-4.1-3.4-7.5-7.5-7.7c-4.6-0.2-8.3,3.5-8.2,8.1l0.1,4c0,1.4-1.1,2.5-2.5,2.5
			c-1.3-0.1-2.3-1.1-2.3-2.4l-0.1-3.8c-0.2-7.3,5.7-13.4,13.3-13.1c6.3,0.2,12,5.8,12.1,12.5l0.2,12.9L105.9,83.4z"/>
		<path class="st2" d="M110.7,84.2C110.7,84.2,110.7,84.2,110.7,84.2l-4.9-0.2c-0.3,0-0.6-0.3-0.6-0.6l-0.2-12.8
			c-0.1-3.8-3.1-6.9-6.9-7.1c-2-0.1-4,0.6-5.4,2.1c-1.5,1.4-2.2,3.4-2.2,5.4l0.1,4c0,0.8-0.3,1.6-0.9,2.2c-0.6,0.6-1.4,0.9-2.2,0.9
			c-1.6-0.1-2.9-1.4-2.9-3l-0.1-3.8c-0.1-3.8,1.3-7.3,4-9.9c2.6-2.6,6.1-3.9,9.9-3.8c0,0,0.1,0,0.1,0c6.7,0.3,12.5,6.3,12.6,13
			l0.2,12.9c0,0.2-0.1,0.3-0.2,0.4C111,84.2,110.8,84.2,110.7,84.2z M106.4,82.8l3.6,0.1l-0.2-12.3c-0.1-6.2-5.4-11.6-11.6-11.9
			c0,0-0.1,0-0.1,0c-3.4-0.1-6.6,1.1-8.9,3.4c-2.4,2.4-3.7,5.6-3.6,9l0.1,3.8c0,1,0.8,1.7,1.7,1.8c0.5,0,1-0.2,1.3-0.5
			c0.4-0.4,0.5-0.8,0.5-1.3l-0.1-4c-0.1-2.4,0.9-4.6,2.6-6.3c1.7-1.7,3.9-2.5,6.3-2.4c4.4,0.2,8,3.9,8.1,8.3L106.4,82.8z"/>
		<path class="st1" d="M100.5,118.6l-5.4,0.2c-7.5-0.2-14.1-9.1-13.4-19.6l1.1-16.8l31.8-0.2c2.8,0,5.2,2.5,5,5.3l-1,14.2
			C118,111.2,110.1,118.6,100.5,118.6z"/>
		<path class="st1" d="M95.3,118.4c-10.5,0-18.9-8.9-18.2-19.4l1.1-16.3h33.7c1.5,0,2.8,1.3,2.7,2.9l-1.1,15.9
			C112.8,111,104.8,118.4,95.3,118.4z"/>
		<path class="st2" d="M95.3,119c-5.3,0-10.2-2.1-13.7-6c-3.6-3.8-5.4-8.9-5-14.1l1.1-16.3c0-0.3,0.3-0.6,0.6-0.6h33.7
			c0.9,0,1.8,0.4,2.4,1c0.6,0.7,0.9,1.6,0.9,2.5l-1.1,15.9C113.4,111.3,105.1,119,95.3,119z M78.8,83.3L77.7,99
			c-0.3,4.9,1.3,9.6,4.7,13.2c3.4,3.6,7.9,5.6,12.9,5.6c9.2,0,17-7.2,17.6-16.4l1.1-15.9c0-0.6-0.2-1.1-0.5-1.6
			c-0.4-0.4-0.9-0.7-1.5-0.7H78.8z"/>
		<path class="st2" d="M94.9,108.1c-0.9,0-1.5-0.7-1.5-1.6l0.8-12.7c0.1-0.8,0.7-1.4,1.5-1.4c0.9,0,1.5,0.7,1.5,1.6l-0.8,12.7
			C96.3,107.4,95.6,108.1,94.9,108.1z"/>
		<path class="st2" d="M95.4,100.5c3,0,5.5-2.5,5.5-5.5s-2.5-5.5-5.5-5.5c-3,0-5.5,2.5-5.5,5.5S92.3,100.5,95.4,100.5z"/>
	</g>
</g>
</svg>
