<?xml version="1.0" encoding="utf-8"?>
<!-- Generator: Adobe Illustrator 27.0.1, SVG Export Plug-In . SVG Version: 6.00 Build 0)  -->
<svg version="1.1" id="Layer_1" xmlns="http://www.w3.org/2000/svg" xmlns:xlink="http://www.w3.org/1999/xlink" x="0px" y="0px"
	 width="80px" height="65px" viewBox="0 0 80 65" style="enable-background:new 0 0 80 65;" xml:space="preserve">
<style type="text/css">
	.st0{fill:#FFFFFF;}
</style>
<g>
	<path class="st0" d="M78.1,28.9c-5.2,0-10.1,0-15.1-0.1c-0.3,0-0.8-0.4-1-0.8c-3-5.4-7.2-9.3-12.9-11.6
		c-10.9-4.6-24.2-0.6-30.7,9.3c-0.3,0.5-0.7,0.8-0.8,1.4C17,28.7,16,29,14.4,29c-4-0.2-7.8-0.1-11.8-0.1c-0.4,0-0.8,0-1.4,0
		c0.5-1.4,0.8-2.6,1.3-3.8c0.1-0.2,0.7-0.5,1.1-0.5c2.7,0,5.3,0.1,7.9,0.2c0.8,0.1,1.4-0.2,1.9-0.9c0.8-1.1,1.7-2.3,2.5-3.4
		c0.2-0.4,0.4-1.1,0.2-1.5c-0.8-2.5-1.7-4.9-2.7-7.4c-0.2-0.7-0.2-1.1,0.4-1.5c1.5-1,3-2.1,4.6-3.2c0.5-0.4,1-0.4,1.5,0
		c2.1,1.6,4.3,3.2,6.3,4.8c0.6,0.5,1.2,0.7,2.1,0.3c1.2-0.5,2.4-0.8,3.6-1.1c1-0.2,1.4-0.8,1.7-1.7c0.6-2.4,1.4-4.6,2.1-6.9
		C36,1.3,36.5,1,37.5,1c1.7,0.1,3.5,0.1,5.2,0.1c0.8,0,1.1,0.3,1.2,1.1C44.6,4.6,45.3,7,46,9.3c0.2,0.9,0.8,1.5,1.7,1.7
		c1.2,0.3,2.3,0.7,3.4,1.1c0.7,0.3,1.3,0.2,1.9-0.3c1.9-1.4,3.7-2.8,5.6-4.3c1.7-1.3,1.3-1.2,3,0c1.2,0.8,2.4,1.7,3.6,2.6
		c0.7,0.5,0.8,0.9,0.5,1.7c-0.9,2.4-1.7,4.7-2.7,7.1c-0.3,0.8-0.2,1.5,0.4,2.1c0.4,0.5,0.8,1,1.1,1.5c0.9,1.8,2.4,2.5,4.4,2.2
		c2.1-0.2,4.2-0.2,6.3-0.2c0.7,0,1.1,0.2,1.2,0.8C77.3,26.6,77.7,27.7,78.1,28.9z"/>
	<g>
		<path class="st0" d="M59.8,33.1c0-0.1-0.1-0.1-0.1-0.2c-2.4-2.4-4.8-4.8-7.2-7.2c-0.4-0.4-0.7-0.5-1.1,0c-0.2,0.2-0.2,0.2-0.2,0.3
			c-0.2,0.3-0.1,0.6,0.3,0.9c2.1,2.1,4.3,4.3,6.5,6.4c0.4,0.3,0.7,0.7,1.2,1.1c0.3-0.5,0.6-0.8,0.9-1.2
			C59.9,33.3,59.9,33.2,59.8,33.1z"/>
		<path class="st0" d="M49.5,27.6c-0.5,0.6-0.2,0.9,0.2,1.3c2.2,2.1,4.3,4.3,6.5,6.5c0.5,0.5,0.8,0.8,1,0.7c0.2,0,0.5-0.4,1-1
			c-2.5-2.5-4.9-4.9-7.4-7.3C50.4,27.3,50.1,27,49.5,27.6z"/>
	</g>
	<g>
		<path class="st0" d="M29.6,27.1c-2.7,2.7-5.4,5.4-8,8.1c0.2,0.2,0.5,0.6,0.7,0.9c2.8-2.7,5.5-5.4,8.3-8.1
			C30.2,27.6,29.9,27.3,29.6,27.1z"/>
		<path class="st0" d="M27.7,25.4c-0.2,0-0.5,0.2-1,0.8c-2.1,2.1-4.2,4.2-6.3,6.2c-0.5,0.5-0.8,0.8-0.7,1.1c0,0.2,0.3,0.5,0.9,0.8
			c2.7-2.7,5.3-5.2,8.1-7.9C28.2,25.7,27.9,25.4,27.7,25.4z"/>
	</g>
	<path class="st0" d="M56.3,36.8c-2.5-2.5-5.1-5-7.6-7.5c-0.5-0.5-0.8-0.2-1.1,0.2c-0.5,0.5-1.1,1.1-1.6,1.6
		c-0.2,0.2-0.2,0.2-0.4,0.4c-0.5,0.5-1.1,1.1-1.6,1.6c-0.8,0.8-1.6,1.4-2.4,2.2l0,0l0,0c0.1,0.1,0.2,0.2,0.2,0.3
		c2.4-0.5,4.5,0,6.2,1.7c1.3,1.3,1.8,2.7,1.9,4.4c0,0.5-0.1,1.1-0.2,1.7l0,0l0,0C51.9,41.2,54.1,39,56.3,36.8z M49.5,34.7
		c-0.1-0.3,0.5-0.7,0.9-1.3c0.4,0.6,0.9,1,0.8,1.3c0,0.3-0.5,0.7-0.8,1C50.1,35.3,49.6,35.1,49.5,34.7z"/>
	<path class="st0" d="M37.4,34.9c-0.1-0.1-0.2-0.2-0.2-0.2c-1.7-1.7-3.5-3.3-5.2-5.1c-0.6-0.6-1-0.6-1.5,0c-2.2,2.3-4.5,4.5-6.8,6.7
		c-0.3,0.3-0.4,0.5-0.4,0.7s0.2,0.5,0.5,0.7c1.8,1.7,3.6,3.6,5.4,5.3c0.2,0.2,0.4,0.2,0.6,0.4l0,0l0,0c-0.1-0.6-0.2-1.2-0.1-1.8
		c0-0.2,0.1-0.4,0.1-0.5s0-0.2,0.1-0.3c0-0.2,0.1-0.3,0.1-0.4c0-0.2,0.1-0.3,0.1-0.4c0,0,0-0.1,0.1-0.1c0.8-2.5,3-4.2,5.9-4.3
		c0.1,0,0.2,0,0.3,0c0.2,0,0.4,0,0.6,0c0.3,0,0.6,0.1,1,0.1C37.7,35.2,37.5,35,37.4,34.9z M29,35.5c-0.4-0.1-0.6-0.6-1-0.9
		c0.4-0.3,0.7-0.8,1.1-0.9c0.3,0,0.7,0.5,1.3,1C29.7,35.2,29.3,35.6,29,35.5z"/>
	<path class="st0" d="M5.2,54.7c-0.8,0-1.5,0.3-2,1s-0.7,1.5-0.7,2.7c0,2.4,0.9,3.6,2.7,3.6c0.8,0,1.7-0.2,2.7-0.6v1.9
		c-0.9,0.4-2,0.6-3,0.6c-1.6,0-2.8-0.5-3.6-1.4c-0.8-1-1.3-2.4-1.3-4.1c0-1.1,0.2-2.1,0.6-3c0.4-0.8,1-1.5,1.7-2
		C3.1,52.9,4,52.7,5,52.7s2.1,0.2,3.2,0.8l-0.8,1.9C7,55.2,6.6,55,6.2,54.9C5.9,54.8,5.5,54.7,5.2,54.7z M15.3,63.8l-0.5-1.1h-0.1
		c-0.4,0.5-0.8,0.8-1.2,1C13.2,63.8,12.7,64,12,64c-0.8,0-1.4-0.2-1.9-0.7s-0.7-1.1-0.7-2s0.3-1.5,0.9-2c0.6-0.5,1.5-0.7,2.8-0.7
		l1.4-0.1v-0.4c0-0.8-0.5-1.3-1.3-1.3c-0.7,0-1.4,0.2-2.4,0.6L10.2,56c1-0.5,2-0.8,3.2-0.8c1.1,0,2,0.2,2.6,0.8
		c0.6,0.5,0.9,1.2,0.9,2.2v5.5L15.3,63.8L15.3,63.8z M14.7,60h-0.9c-0.7,0-1.1,0.2-1.4,0.4c-0.3,0.2-0.5,0.5-0.5,1
		c0,0.6,0.4,1,1.1,1c0.5,0,0.9-0.2,1.3-0.5c0.3-0.3,0.5-0.7,0.5-1.2V60H14.7z M23.9,55.4c0.3,0,0.5,0,0.8,0.1l-0.2,2.1
		c-0.2-0.1-0.4-0.1-0.7-0.1c-0.8,0-1.3,0.2-1.7,0.5s-0.6,0.9-0.6,1.6v4.3h-2.3v-8.4H21l0.3,1.4h0.1c0.2-0.5,0.6-0.8,1.1-1.1
		C22.9,55.5,23.3,55.4,23.9,55.4z M39.3,58.3c0,1.8-0.5,3.2-1.5,4.1c-1,0.9-2.5,1.4-4.4,1.4h-3V53h3.4c1.7,0,3.1,0.5,4.1,1.4
		C38.7,55.3,39.3,56.6,39.3,58.3z M36.8,58.4c0-2.4-1.1-3.5-3.1-3.5h-1.2V62h1C35.8,61.9,36.8,60.7,36.8,58.4z M43.2,59.7
		c0,0.8,0.2,1.4,0.4,1.9c0.3,0.5,0.7,0.6,1.3,0.6s1.1-0.2,1.3-0.6c0.3-0.5,0.4-1.1,0.4-1.9c0-0.8-0.2-1.4-0.4-1.8
		c-0.3-0.4-0.7-0.6-1.3-0.6s-1.1,0.2-1.3,0.6S43.2,58.8,43.2,59.7z M48.9,59.7c0,1.4-0.4,2.4-1.1,3.2s-1.7,1.1-3,1.1
		c-0.8,0-1.5-0.2-2.1-0.5c-0.6-0.4-1.1-0.8-1.4-1.5s-0.5-1.4-0.5-2.3c0-1.4,0.4-2.4,1.1-3.2c0.7-0.8,1.7-1.1,3-1.1
		c0.8,0,1.5,0.2,2.1,0.5s1.1,0.8,1.4,1.5C48.7,58.1,48.9,58.8,48.9,59.7z M54.1,64c-2.6,0-3.9-1.4-3.9-4.3c0-1.4,0.4-2.5,1.1-3.2
		c0.7-0.8,1.7-1.1,3-1.1c1,0,1.8,0.2,2.6,0.5l-0.7,1.7c-0.4-0.2-0.7-0.2-1-0.4c-0.3-0.1-0.6-0.2-0.9-0.2c-1.1,0-1.7,0.8-1.7,2.5
		c0,1.6,0.6,2.4,1.7,2.4c0.5,0,0.8-0.1,1.2-0.2c0.4-0.2,0.8-0.3,1.1-0.5v1.9c-0.4,0.2-0.8,0.4-1.1,0.5C55.2,63.9,54.7,64,54.1,64z
		 M62.1,62.2c0.4,0,0.8-0.1,1.4-0.2v1.7c-0.6,0.2-1.3,0.4-2.1,0.4c-0.9,0-1.6-0.2-2-0.7s-0.6-1.1-0.6-2.1v-4h-1.1v-1l1.2-0.8
		l0.7-1.7H61v1.7h2.4v1.7H61v4c0,0.3,0.1,0.5,0.3,0.7C61.5,62.1,61.8,62.2,62.1,62.2z M66.9,59.7c0,0.8,0.2,1.4,0.4,1.9
		c0.3,0.5,0.7,0.6,1.3,0.6c0.6,0,1.1-0.2,1.3-0.6c0.3-0.5,0.4-1.1,0.4-1.9c0-0.8-0.2-1.4-0.4-1.8c-0.3-0.4-0.7-0.6-1.3-0.6
		c-0.6,0-1.1,0.2-1.3,0.6C67.1,58.2,66.9,58.8,66.9,59.7z M72.7,59.7c0,1.4-0.4,2.4-1.1,3.2S70,64,68.7,64c-0.8,0-1.5-0.2-2.1-0.5
		s-1.1-0.8-1.4-1.5s-0.5-1.4-0.5-2.3c0-1.4,0.4-2.4,1.1-3.2s1.7-1.1,3-1.1c0.8,0,1.5,0.2,2.1,0.5c0.6,0.4,1.1,0.8,1.4,1.5
		C72.6,58.1,72.7,58.8,72.7,59.7z M79.2,55.4c0.3,0,0.5,0,0.8,0.1l-0.2,2.1c-0.2-0.1-0.4-0.1-0.7-0.1c-0.8,0-1.3,0.2-1.7,0.5
		s-0.6,0.9-0.6,1.6v4.3h-2.3v-8.4h1.7l0.3,1.4h0.1c0.2-0.5,0.6-0.8,1.1-1.1C78.2,55.5,78.7,55.4,79.2,55.4z"/>
</g>
</svg>
